<?xml version="1.0" encoding="utf-8"?>
<!-- Generator: Adobe Illustrator 16.0.0, SVG Export Plug-In . SVG Version: 6.00 Build 0)  -->
<svg version="1.2" baseProfile="tiny" xmlns="http://www.w3.org/2000/svg" xmlns:xlink="http://www.w3.org/1999/xlink" x="0px"
	 y="0px" width="2048.289px" height="181.451px" viewBox="0 0 2048.289 181.451" xml:space="preserve">
<g id="book_oblique" display="none">
	<path display="inline" fill="#D6BD54" d="M30.294-206.088h48.87c23.217,0,47.099,5.085,59.926,24.546
		c10.391,14.595,13.267,33.832,9.066,57.051c-9.29,49.308-43.341,82.036-98.401,82.036H0L30.294-206.088z M21.228-58.598h32.508
		c42.013,0,68.547-25.871,75.846-65.232c3.537-19.017,1.547-35.822-7.076-47.76c-8.182-11.057-22.113-18.355-44.447-18.355H45.551
		L21.228-58.598z M179.778-161.419h15.479c-1.327,6.633-2.433,13.266-4.2,21.228c9.729-15.479,27.639-24.989,48.646-24.546
		c36.928,0.442,45.328,25.651,40.023,54.617l-12.604,67.665H250.98l11.942-64.347c4.643-25.65-3.538-43.121-30.295-42.679
		c-24.546,0.223-41.57,15.037-46.217,39.804L174.03-42.455h-16.365L179.778-161.419z M355.796-112.554L352.7-96.411h-59.922
		l3.096-16.143H355.796z M389.408-206.088h83.145l-2.876,16.143h-65.008l-10.837,57.493h64.569l-2.876,16.361h-64.569
		l-13.709,73.636h-18.133L389.408-206.088z M456.414-42.455h-19.677l98.621-163.633h17.69l37.37,163.633h-19.904l-10.391-45.994
		h-76.288L456.414-42.455z M539.778-185.522l-47.762,82.035h65.232L539.778-185.522z M608.555-42.455l30.294-163.633H664.5
		L699.66-68.77l85.794-137.318h25.65L780.811-42.455h-17.247l27.42-145.501L700.542-42.455h-11.719l-36.705-145.501L625.583-42.455
		H608.555z M843.835-206.088h18.133L831.674-42.455h-18.132L843.835-206.088z M917.472-189.945h-40.247l2.875-16.143h99.063
		l-2.875,16.143h-40.463l-27.419,147.49h-18.354L917.472-189.945z M995.528-206.088h42.68c25.646,0,37.146,3.095,44.445,8.403
		c11.721,7.962,17.689,25.429,14.152,44.004c-1.771,11.057-7.076,22.775-15.699,32.062c-12.162,13.27-24.328,16.364-39.805,17.912
		l29.41,61.252h-19.9l-32.951-71.422h5.311c11.498,0,27.418-0.225,37.813-8.405c10.172-8.403,15.699-18.352,17.908-30.07
		c2.215-12.162-1.324-24.989-10.17-31.623c-7.297-5.308-17.248-5.97-32.063-5.97h-25.65l-27.418,147.49h-18.357L995.528-206.088z
		 M1101.673-42.455h-19.678l98.621-163.633h17.689l37.371,163.633h-19.904l-10.391-45.994h-76.287L1101.673-42.455z
		 M1185.036-185.522l-47.762,82.035h65.232L1185.036-185.522z M1406.165-86.459c-15.256,25.209-47.762,46.878-83.803,46.878
		c-48.428,0-78.502-37.369-69.654-84.69c8.623-46.657,51.74-84.689,100.83-84.689c40.465,0,60.813,26.977,66.561,47.761h-19.682
		c-3.76-9.729-18.352-31.618-49.975-31.618c-38.256,0-72.525,30.291-79.604,68.327c-7.299,38.694,16.143,68.769,54.176,68.769
		c34.275,0,56.385-24.546,61.471-30.736H1406.165z M1455.927-206.088h18.133l-14.594,79.163l81.154-79.163h19.898l-83.584,81.597
		l60.146,82.036h-22.775l-56.164-77.616l-14.377,77.616h-18.131L1455.927-206.088z M1583.515-206.088h90.664l-2.877,16.143h-72.531
		l-10.609,56.83h72.084l-3.096,16.143h-72.088l-10.613,58.375h72.529l-3.094,16.143h-90.664L1583.515-206.088z M1701.595-206.088
		h42.68c25.648,0,37.148,3.095,44.447,8.403c11.719,7.962,17.689,25.429,14.152,44.004c-1.771,11.057-7.076,22.775-15.701,32.062
		c-12.164,13.27-24.326,16.364-39.803,17.912l29.408,61.252h-19.898l-32.951-71.422h5.309c11.5,0,27.418-0.225,37.813-8.405
		c10.172-8.403,15.701-18.352,17.91-30.07c2.213-12.162-1.324-24.989-10.172-31.623c-7.295-5.308-17.248-5.97-32.061-5.97h-25.65
		l-27.42,147.49h-18.355L1701.595-206.088z"/>
</g>
<g id="bold" display="none">
	<path display="inline" fill="none" stroke="#000000" stroke-miterlimit="10" d="M1029.511-282.449"/>
	<path display="inline" d="M0-414.107h54.174c18.355,0,51.082,0,72.311,30.518c11.277,15.477,15.035,32.947,15.035,50.856
		c0,44.668-22.111,82.258-84.247,82.258H0V-414.107z M41.793-287.182h17.91c31.178,0,40.025-21.668,40.025-44.885
		c0-9.29-1.99-21.009-7.961-30.294c-4.867-7.301-13.268-15.037-31.842-15.037H41.793V-287.182z M149.925-373.199h34.274v13.047
		c4.201-5.971,11.943-17.246,33.832-17.246c41.352,0,45.551,33.607,45.551,50.193v76.73h-36.707v-67.002
		c0-13.486-2.871-25.427-19.238-25.427c-18.127,0-21.004,13.047-21.004,25.65v66.779h-36.708V-373.199z M334.123-332.291v36.042
		h-62.137v-36.042H334.123z M342.527-414.107h89.336v36.709h-47.541v27.859h45.773v36.708h-45.773v62.355h-41.795V-414.107z
		 M522.971-250.475v-23.66h-62.424l-17.623,23.66h-41.793l121.84-163.632h41.793v163.632H522.971z M522.971-307.301v-50.673
		l-37.73,50.673H522.971z M573.168-250.475v-163.632h55.946l30.737,105.478l29.852-105.478h56.167v163.632h-38.477l1.328-122.5
		l-35.379,122.5h-27.641l-35.381-122.5l1.324,122.5H573.168z M754.273-414.107h41.793v163.632h-41.793V-414.107z M836.757-377.398
		h-32.286v-36.709h106.141v36.709h-32.061v126.923h-41.795V-377.398z M1127.542-414.107h41.795v163.632h-41.795v-23.66h-62.422
		l-17.623,23.66h-43.123l-42.674-78.94h6.852c10.615,0,19.68-0.886,25.209-4.424c5.086-3.313,9.289-11.056,9.289-20.122
		c0-8.624-4.203-15.477-9.732-19.015c-4.643-2.876-11.275-4.423-17.023-4.423h-15.48v126.923h-41.793v-163.632h53.514
		c25.65,0,41.568,4.643,50.635,11.719c13.709,10.614,19.904,26.757,19.904,44.67c0,12.604-3.539,22.333-8.182,29.628
		c-5.527,8.623-13.49,14.15-21.229,17.469l15.848,28.173L1127.542-414.107 M1127.542-307.301v-50.673l-37.729,50.673H1127.542z
		 M1346.679-311.725c-9.506,38.695-43.117,64.346-82.697,64.346c-51.303,0-86.24-40.908-86.24-85.131
		c0-41.792,32.285-84.691,85.797-84.691c51.299,0,78.721,39.58,83.141,65.231h-43.779c-4.645-12.162-17.027-28.523-39.58-28.523
		c-28.086,0-43.785,24.542-43.785,47.761c0,24.766,16.805,48.647,44.004,48.647c26.094,0,36.707-21.891,39.361-27.639H1346.679z
		 M1357.208-414.107h41.795v73.636l46.654-73.636h43.785l-53.955,81.374l59.484,82.258h-50.861l-45.107-70.76v70.76h-41.795
		V-414.107z M1503.128-414.107h92.652v36.709h-50.859v25.428h49.311v36.707h-49.311v28.082h50.859v36.707h-92.652V-414.107z
		 M1604.185-414.107h53.512c25.652,0,41.572,4.643,50.639,11.719c13.709,10.614,19.902,26.757,19.902,44.67
		c0,12.604-3.539,22.333-8.182,29.628c-5.527,8.623-13.488,14.15-21.229,17.469l33.834,60.146h-43.121l-42.676-78.94h6.852
		c10.613,0,19.682-0.886,25.209-4.424c5.086-3.313,9.289-11.056,9.289-20.122c0-8.624-4.203-15.477-9.732-19.015
		c-4.643-2.876-11.275-4.423-17.023-4.423h-15.48v126.923h-41.793V-414.107z"/>
	<path display="inline" fill="none" stroke="#000000" stroke-miterlimit="10" d="M1029.511-282.449"/>
</g>
<g id="demi" display="none">
	<path display="inline" fill="#A71F24" stroke="#A71F23" stroke-miterlimit="10" d="M973.284-473.044"/>
	<path display="inline" fill="#A71F24" d="M-0.001-636.677H51.96c20.346,0,49.976,1.99,69.436,28.304
		c11.938,15.038,16.805,33.17,16.805,53.293c0,46.214-24.323,82.036-83.807,82.036H-0.001V-636.677z M32.945-502.01h23.219
		c35.38,0,49.089-23.219,49.089-52.627c0-12.827-3.317-26.537-11.057-36.709c-6.856-8.847-17.909-16.361-37.813-16.361H32.945
		V-502.01z M146.493-594.441h27.198c0,5.305,0,10.391-0.219,16.143c5.305-9.509,16.142-20.123,37.813-19.903
		c39.58,0.223,47.099,30.517,47.099,51.964v73.193h-28.97v-65.894c0-18.132-5.967-32.065-26.313-32.065
		c-20.563,0.224-27.638,13.934-27.638,30.957v67.002h-28.97V-594.441z M327.929-550.437v28.523h-61.252v-28.523H327.929z
		 M336.222-636.677h86.901v28.97h-53.955v39.138h52.627v28.966h-52.627v66.56h-32.946V-636.677z M512.903-531.362l-48.867-0.028
		l48.867-62.885V-531.362z M512.903-473.044h32.945v-163.633h-32.945L385.754-473.044h32.947l24.914-32.062h69.288V-473.044z
		 M554.142-473.044v-163.633h44.446L640.6-519.258l41.348-117.419h44.67v163.633h-30.517l0.885-131.125l-45.771,131.125h-21.671
		L583.55-604.169l0.886,131.125H554.142z M734.91-636.677h32.947v163.633H734.91V-636.677z M811.531-607.708H776.15v-28.97h103.487
		v28.97h-35.16v134.663h-32.946V-607.708z M1309.062-527.885c-9.951,33.832-41.793,57.936-80.049,57.936
		c-49.975,0-85.793-39.58-85.793-85.131c0-43.564,33.832-84.692,85.572-84.692c47.1,0.224,73.855,34.938,80.27,58.821h-34.719
		c-5.084-11.28-19.68-29.632-45.773-29.854c-31.838,0-52.404,26.756-52.404,55.726c0,29.852,21.449,56.165,52.627,56.165
		c29.189,0,42.457-22.998,45.551-28.97H1309.062z M1317.354-636.677h32.949v75.846l54.174-75.846h34.717l-59.264,81.597
		l65.232,82.036h-40.244l-54.615-73.412v73.412h-32.949V-636.677z M1453.456-636.677h91.764v28.97h-58.818v37.147h57.715v28.967
		h-57.715v39.583h58.818v28.966h-91.764V-636.677z M1553.513-636.677h49.533c25.43,0,40.025,3.98,48.867,10.395
		c13.49,9.729,20.787,26.314,20.787,44.445c0,11.939-3.314,22.554-8.844,30.516c-7.076,10.393-16.367,15.035-26.98,17.689
		l36.484,60.588h-34.492l-44.006-76.069h6.414c10.834,0,22.553-0.661,29.41-5.967c6.414-5.309,10.395-13.933,10.395-23.884
		c0-9.949-4.867-19.015-12.162-23.657c-5.971-3.761-13.934-5.086-23.219-5.086h-19.238v134.663h-32.949V-636.677z M1101.979-531.362
		l-48.865-0.028l48.865-62.885V-531.362z M1007.78-473.044l24.912-32.062h69.287v32.062h32.947v-163.633h-32.947L993.395-496.933
		l-22.101-36.7c10.615-2.654,19.904-7.297,26.98-17.689c5.529-7.962,8.844-18.576,8.844-30.516c0-18.131-7.297-34.717-20.787-44.445
		c-8.846-6.414-23.438-10.395-48.867-10.395h-49.533v163.633h32.948v-134.663h19.24c9.287,0,17.248,1.325,23.215,5.086
		c7.301,4.643,12.166,13.708,12.166,23.657c0,9.951-3.98,18.575-10.395,23.884c-6.857,5.306-18.576,5.967-29.41,5.967h-6.412
		l44.002,76.069H1007.78z"/>
	<path display="inline" fill="#A71F24" stroke="#A71F23" stroke-miterlimit="10" d="M973.284-473.044"/>
</g>
<g id="demi_with_line" display="none">
	<polygon display="inline" fill="#EFE9D3" stroke="#D6BD54" stroke-width="3" stroke-miterlimit="10" points="1940.327,157.764 
		3.779,157.764 107.96,23.689 2044.509,23.689 	"/>
	<path display="inline" fill="#A71F24" d="M170.354,8.91h51.961c20.346,0,49.976,1.99,69.436,28.304
		c11.938,15.038,16.805,33.17,16.805,53.293c0,46.214-24.323,82.036-83.807,82.036h-54.395V8.91z M203.301,143.577h23.219
		c35.38,0,49.089-23.219,49.089-52.627c0-12.827-3.317-26.537-11.057-36.709c-6.856-8.847-17.909-16.361-37.813-16.361h-23.438
		V143.577z M316.849,51.146h27.198c0,5.305,0,10.391-0.219,16.143c5.305-9.509,16.142-20.123,37.813-19.903
		c39.58,0.223,47.099,30.517,47.099,51.964v73.193h-28.97v-65.894c0-18.132-5.967-32.065-26.313-32.065
		c-20.563,0.224-27.638,13.934-27.638,30.957v67.002h-28.97V51.146z M498.284,95.15v28.523h-61.252V95.15H498.284z M506.577,8.91
		h86.901v28.97h-53.955v39.138h52.627v28.966h-52.627v66.56h-32.946V8.91z M683.259,114.226l-48.867-0.028l48.867-62.885V114.226z
		 M683.259,172.543h32.945V8.91h-32.945L556.109,172.543h32.947l24.914-32.062h69.288V172.543z M724.497,172.543V8.91h44.446
		l42.016,117.419L852.308,8.91h44.67v163.633H866.46l0.885-131.125l-45.77,131.125h-21.674L753.905,41.418l0.886,131.125H724.497z
		 M905.271,8.91h32.947v163.633h-32.947V8.91z M981.892,37.88h-35.381V8.91h103.486v28.97h-35.16v134.663h-32.945V37.88z
		 M1479.421,117.702c-9.951,33.832-41.793,57.936-80.049,57.936c-49.975,0-85.793-39.58-85.793-85.131
		c0-43.564,33.832-84.692,85.572-84.692c47.1,0.224,73.855,34.938,80.27,58.821h-34.719c-5.084-11.28-19.68-29.632-45.773-29.854
		c-31.838,0-52.404,26.756-52.404,55.726c0,29.852,21.449,56.165,52.627,56.165c29.189,0,42.457-22.998,45.551-28.97H1479.421z
		 M1487.714,8.91h32.949v75.846l54.174-75.846h34.717l-59.264,81.597l65.232,82.036h-40.244l-54.615-73.412v73.412h-32.949V8.91z
		 M1623.815,8.91h91.764v28.97h-58.818v37.147h57.715v28.967h-57.715v39.583h58.818v28.966h-91.764V8.91z M1723.872,8.91h49.533
		c25.43,0,40.025,3.98,48.867,10.395c13.49,9.729,20.787,26.314,20.787,44.445c0,11.939-3.314,22.554-8.844,30.516
		c-7.076,10.393-16.367,15.035-26.98,17.689l36.484,60.588h-34.492l-44.006-76.069h6.414c10.834,0,22.553-0.661,29.41-5.967
		c6.414-5.309,10.395-13.933,10.395-23.884c0-9.949-4.867-19.015-12.162-23.657c-5.971-3.761-13.934-5.086-23.219-5.086h-19.238
		v134.663h-32.949V8.91z M1272.339,114.226l-48.865-0.028l48.865-62.885V114.226z M1178.14,172.543l24.912-32.062h69.287v32.062
		h32.947V8.91h-32.947l-108.584,139.745l-22.102-36.7c10.615-2.654,19.904-7.297,26.98-17.689
		c5.529-7.962,8.844-18.576,8.844-30.516c0-18.131-7.297-34.717-20.787-44.445c-8.846-6.414-23.438-10.395-48.867-10.395h-49.533
		v163.633h32.949V37.88h19.238c9.287,0,17.248,1.325,23.215,5.086c7.301,4.643,12.166,13.708,12.166,23.657
		c0,9.951-3.98,18.575-10.395,23.884c-6.857,5.306-18.576,5.967-29.41,5.967h-6.412l44.002,76.069H1178.14z"/>
</g>
<g id="demi_with_line_alt">
	<linearGradient id="SVGID_1_" gradientUnits="userSpaceOnUse" x1="1024.1455" y1="23.6885" x2="1024.1455" y2="157.7627">
		<stop  offset="0" style="stop-color:#6A6E82"/>
		<stop  offset="0.2977" style="stop-color:#626176"/>
		<stop  offset="0.8474" style="stop-color:#4D3F58"/>
		<stop  offset="1" style="stop-color:#46344E"/>
	</linearGradient>
	<polygon fill="url(#SVGID_1_)" stroke="#7C9ECE" stroke-width="0.5" stroke-miterlimit="10" points="1940.329,157.763 
		3.779,157.763 107.96,23.688 2044.511,23.688 	"/>
	<linearGradient id="SVGID_2_" gradientUnits="userSpaceOnUse" x1="1007.6143" y1="4.3135" x2="1007.6143" y2="177.1377">
		<stop  offset="0" style="stop-color:#212121"/>
		<stop  offset="0.3655" style="stop-color:#2B2B2B"/>
		<stop  offset="0.87" style="stop-color:#404040"/>
	</linearGradient>
	<path fill="#FFF8FC" stroke="url(#SVGID_2_)" stroke-width="3" stroke-miterlimit="10" d="M170.354,8.909h51.961
		c20.346,0,49.976,1.99,69.436,28.305c11.938,15.037,16.805,33.17,16.805,53.293c0,46.213-24.323,82.035-83.807,82.035h-54.395
		V8.909z M203.301,143.577h23.219c35.38,0,49.089-23.219,49.089-52.627c0-12.828-3.317-26.537-11.057-36.709
		c-6.856-8.848-17.909-16.361-37.813-16.361h-23.438V143.577z M316.849,51.146h27.198c0,5.305,0,10.391-0.219,16.143
		c5.305-9.508,16.142-20.123,37.813-19.902c39.58,0.223,47.099,30.516,47.099,51.963v73.193h-28.97v-65.893
		c0-18.133-5.967-32.066-26.313-32.066c-20.563,0.225-27.638,13.934-27.638,30.957v67.002h-28.97V51.146z M498.284,95.149v28.523
		h-61.252V95.149H498.284z M506.577,8.909h86.901V37.88h-53.955v39.137h52.627v28.967h-52.627v66.559h-32.946V8.909z
		 M683.259,114.226l-48.867-0.029l48.867-62.885V114.226z M683.259,172.542h32.945V8.909h-32.945L556.109,172.542h32.947
		l24.914-32.061h69.288V172.542z M724.497,172.542V8.909h44.446l42.016,117.42l41.349-117.42h44.669v163.633h-30.517l0.885-131.125
		l-45.77,131.125h-21.674L753.905,41.417l0.886,131.125H724.497z M905.271,8.909h32.947v163.633h-32.947V8.909z M981.892,37.88
		h-35.381V8.909h103.486V37.88h-35.16v134.662h-32.945V37.88z M1479.421,117.702c-9.951,33.832-41.793,57.936-80.049,57.936
		c-49.975,0-85.793-39.58-85.793-85.131c0-43.564,33.832-84.693,85.572-84.693c47.1,0.225,73.855,34.938,80.27,58.822h-34.719
		c-5.084-11.281-19.68-29.633-45.773-29.855c-31.838,0-52.404,26.756-52.404,55.727c0,29.852,21.449,56.164,52.627,56.164
		c29.189,0,42.457-22.998,45.551-28.969H1479.421z M1487.714,8.909h32.949v75.846l54.174-75.846h34.717l-59.264,81.598
		l65.232,82.035h-40.244l-54.615-73.412v73.412h-32.949V8.909z M1623.815,8.909h91.764V37.88h-58.818v37.146h57.715v28.967h-57.715
		v39.584h58.818v28.965h-91.764V8.909z M1723.872,8.909h49.533c25.43,0,40.025,3.98,48.867,10.395
		c13.49,9.729,20.787,26.314,20.787,44.445c0,11.939-3.314,22.555-8.844,30.516c-7.076,10.393-16.367,15.035-26.98,17.689
		l36.484,60.588h-34.492l-44.006-76.068h6.414c10.834,0,22.553-0.662,29.41-5.967c6.414-5.309,10.395-13.934,10.395-23.885
		c0-9.949-4.867-19.014-12.162-23.656c-5.971-3.762-13.934-5.086-23.219-5.086h-19.238v134.662h-32.949V8.909z M1272.339,114.226
		l-48.865-0.029l48.865-62.885V114.226z M1178.14,172.542l24.912-32.061h69.287v32.061h32.947V8.909h-32.947l-108.584,139.746
		l-22.102-36.701c10.615-2.654,19.904-7.297,26.98-17.689c5.529-7.961,8.844-18.576,8.844-30.516
		c0-18.131-7.297-34.717-20.787-44.445c-8.846-6.414-23.438-10.395-48.867-10.395h-49.533v163.633h32.949V37.88h19.238
		c9.287,0,17.248,1.324,23.215,5.086c7.301,4.643,12.166,13.707,12.166,23.656c0,9.951-3.98,18.576-10.395,23.885
		c-6.857,5.305-18.576,5.967-29.41,5.967h-6.412l44.002,76.068H1178.14z"/>
</g>
<g id="icon" display="none">
	<linearGradient id="SVGID_3_" gradientUnits="userSpaceOnUse" x1="444.0146" y1="542.8037" x2="520.0021" y2="791.3477">
		<stop  offset="0" style="stop-color:#6A6E82"/>
		<stop  offset="0.2977" style="stop-color:#626176"/>
		<stop  offset="0.8474" style="stop-color:#4D3F58"/>
		<stop  offset="1" style="stop-color:#46344E"/>
	</linearGradient>
	<path display="inline" fill-rule="evenodd" fill="url(#SVGID_3_)" stroke="#7C9ECE" stroke-width="0.5" stroke-miterlimit="10" d="
		M606.935,739.07c1.893,16.391-9.971,31.35-26.361,33.242l-170.56,19.69c-16.391,1.893-31.35-9.971-33.242-26.361l-19.691-170.56
		c-1.892-16.391,9.971-31.351,26.362-33.242l170.559-19.691c16.391-1.892,31.35,9.971,33.242,26.362L606.935,739.07z"/>
	<linearGradient id="SVGID_4_" gradientUnits="userSpaceOnUse" x1="482.0083" y1="788.9766" x2="482.0083" y2="545.1758">
		<stop  offset="0" style="stop-color:#212121"/>
		<stop  offset="0.3655" style="stop-color:#2B2B2B"/>
		<stop  offset="0.87" style="stop-color:#404040"/>
	</linearGradient>
	<path display="inline" fill-rule="evenodd" fill="url(#SVGID_4_)" stroke="#515151" stroke-width="0.5" stroke-miterlimit="10" d="
		M550.753,769.779c-5.936,15.396-23.389,23.134-38.784,17.198l-132.664-51.156c-15.395-5.936-23.135-23.389-17.197-38.784
		l51.154-132.664c5.937-15.395,23.39-23.135,38.785-17.197l132.664,51.154c15.396,5.937,23.134,23.39,17.198,38.785L550.753,769.779
		z"/>
	<g display="inline">
		<path fill="#FFF8FC" stroke="#BFBFBF" stroke-width="0.5" stroke-miterlimit="10" d="M377.674,618.882v-42.949h14.795
			c3.34,0,5.889,0.205,7.646,0.615c2.461,0.566,4.56,1.592,6.299,3.076c2.266,1.914,3.959,4.36,5.082,7.339s1.686,6.382,1.686,10.21
			c0,3.262-0.381,6.152-1.143,8.672s-1.739,4.604-2.93,6.255c-1.191,1.65-2.496,2.949-3.912,3.896s-3.125,1.665-5.127,2.153
			s-4.302,0.732-6.898,0.732H377.674z M383.358,613.813h9.17c2.831,0,5.053-0.264,6.664-0.791s2.896-1.27,3.854-2.227
			c1.348-1.348,2.396-3.159,3.148-5.435s1.129-5.034,1.129-8.276c0-4.492-0.738-7.944-2.213-10.356s-3.266-4.028-5.375-4.849
			c-1.523-0.586-3.975-0.879-7.354-0.879h-9.023V613.813z"/>
		<path fill="#FFF8FC" stroke="#BFBFBF" stroke-width="0.5" stroke-miterlimit="10" d="M416.478,618.882v-31.113h4.746v4.424
			c2.285-3.418,5.585-5.127,9.902-5.127c1.875,0,3.599,0.337,5.171,1.011s2.749,1.558,3.53,2.651
			c0.78,1.094,1.328,2.393,1.641,3.896c0.194,0.977,0.293,2.686,0.293,5.127v19.131h-5.273v-18.926c0-2.148-0.205-3.755-0.615-4.819
			s-1.138-1.914-2.183-2.549s-2.271-0.952-3.677-0.952c-2.246,0-4.185,0.713-5.815,2.139s-2.446,4.131-2.446,8.115v16.992H416.478z"
			/>
		<path fill="#FFF8FC" stroke="#BFBFBF" stroke-width="0.5" stroke-miterlimit="10" d="M444.7,605.991v-5.303h16.201v5.303H444.7z"
			/>
		<path fill="#FFF8FC" stroke="#BFBFBF" stroke-width="0.5" stroke-miterlimit="10" d="M414.511,718.073v-92.574h63.464v15.66
			h-44.771v21.912h38.646v15.661h-38.646v39.341H414.511z"/>
		<path fill="#FFF8FC" stroke="#BFBFBF" stroke-width="0.5" stroke-miterlimit="10" d="M514.221,718.073v-76.914h-27.469v-15.66
			h73.566v15.66h-27.406v76.914H514.221z"/>
	</g>
</g>
</svg>
