<?xml version="1.0" encoding="utf-8"?>
<!-- Generator: Adobe Illustrator 16.0.0, SVG Export Plug-In . SVG Version: 6.00 Build 0)  -->
<svg version="1.2" baseProfile="tiny" id="demi_with_line_alt"
	 xmlns="http://www.w3.org/2000/svg" xmlns:xlink="http://www.w3.org/1999/xlink" x="0px" y="0px" width="2048.289px"
	 height="181.451px" viewBox="0 0 2048.289 181.451" xml:space="preserve">
<linearGradient id="SVGID_1_" gradientUnits="userSpaceOnUse" x1="1024.1455" y1="23.6885" x2="1024.1455" y2="157.7627">
	<stop  offset="0" style="stop-color:#6A6E82"/>
	<stop  offset="0.2977" style="stop-color:#626176"/>
	<stop  offset="0.8474" style="stop-color:#4D3F58"/>
	<stop  offset="1" style="stop-color:#46344E"/>
</linearGradient>
<polygon fill="url(#SVGID_1_)" stroke="#7C9ECE" stroke-width="0.5" stroke-miterlimit="10" points="1940.329,157.763 
	3.779,157.763 107.96,23.688 2044.511,23.688 "/>
<linearGradient id="SVGID_2_" gradientUnits="userSpaceOnUse" x1="1007.6143" y1="4.3135" x2="1007.6143" y2="177.1377">
	<stop  offset="0" style="stop-color:#212121"/>
	<stop  offset="0.3655" style="stop-color:#2B2B2B"/>
	<stop  offset="0.87" style="stop-color:#404040"/>
</linearGradient>
<path fill="#FFF8FC" stroke="url(#SVGID_2_)" stroke-width="3" stroke-miterlimit="10" d="M170.354,8.909h51.961
	c20.346,0,49.976,1.99,69.436,28.305c11.938,15.037,16.805,33.17,16.805,53.293c0,46.213-24.323,82.035-83.807,82.035h-54.395V8.909
	z M203.301,143.577h23.219c35.38,0,49.089-23.219,49.089-52.627c0-12.828-3.317-26.537-11.057-36.709
	c-6.856-8.848-17.909-16.361-37.813-16.361h-23.438V143.577z M316.849,51.146h27.198c0,5.305,0,10.391-0.219,16.143
	c5.305-9.508,16.142-20.123,37.813-19.902c39.58,0.223,47.099,30.516,47.099,51.963v73.193h-28.97v-65.893
	c0-18.133-5.967-32.066-26.313-32.066c-20.563,0.225-27.638,13.934-27.638,30.957v67.002h-28.97V51.146z M498.284,95.149v28.523
	h-61.252V95.149H498.284z M506.577,8.909h86.901V37.88h-53.955v39.137h52.627v28.967h-52.627v66.559h-32.946V8.909z
	 M683.259,114.226l-48.867-0.029l48.867-62.885V114.226z M683.259,172.542h32.945V8.909h-32.945L556.109,172.542h32.947
	l24.914-32.061h69.288V172.542z M724.497,172.542V8.909h44.446l42.016,117.42l41.349-117.42h44.669v163.633h-30.517l0.885-131.125
	l-45.77,131.125h-21.674L753.905,41.417l0.886,131.125H724.497z M905.271,8.909h32.947v163.633h-32.947V8.909z M981.892,37.88
	h-35.381V8.909h103.486V37.88h-35.16v134.662h-32.945V37.88z M1479.421,117.702c-9.951,33.832-41.793,57.936-80.049,57.936
	c-49.975,0-85.793-39.58-85.793-85.131c0-43.564,33.832-84.693,85.572-84.693c47.1,0.225,73.855,34.938,80.27,58.822h-34.719
	c-5.084-11.281-19.68-29.633-45.773-29.855c-31.838,0-52.404,26.756-52.404,55.727c0,29.852,21.449,56.164,52.627,56.164
	c29.189,0,42.457-22.998,45.551-28.969H1479.421z M1487.714,8.909h32.949v75.846l54.174-75.846h34.717l-59.264,81.598l65.232,82.035
	h-40.244l-54.615-73.412v73.412h-32.949V8.909z M1623.815,8.909h91.764V37.88h-58.818v37.146h57.715v28.967h-57.715v39.584h58.818
	v28.965h-91.764V8.909z M1723.872,8.909h49.533c25.43,0,40.025,3.98,48.867,10.395c13.49,9.729,20.787,26.314,20.787,44.445
	c0,11.939-3.314,22.555-8.844,30.516c-7.076,10.393-16.367,15.035-26.98,17.689l36.484,60.588h-34.492l-44.006-76.068h6.414
	c10.834,0,22.553-0.662,29.41-5.967c6.414-5.309,10.395-13.934,10.395-23.885c0-9.949-4.867-19.014-12.162-23.656
	c-5.971-3.762-13.934-5.086-23.219-5.086h-19.238v134.662h-32.949V8.909z M1272.339,114.226l-48.865-0.029l48.865-62.885V114.226z
	 M1178.14,172.542l24.912-32.061h69.287v32.061h32.947V8.909h-32.947l-108.584,139.746l-22.102-36.701
	c10.615-2.654,19.904-7.297,26.98-17.689c5.529-7.961,8.844-18.576,8.844-30.516c0-18.131-7.297-34.717-20.787-44.445
	c-8.846-6.414-23.438-10.395-48.867-10.395h-49.533v163.633h32.949V37.88h19.238c9.287,0,17.248,1.324,23.215,5.086
	c7.301,4.643,12.166,13.707,12.166,23.656c0,9.951-3.98,18.576-10.395,23.885c-6.857,5.305-18.576,5.967-29.41,5.967h-6.412
	l44.002,76.068H1178.14z"/>
</svg>
