<?xml version="1.0" encoding="utf-8"?>
<!-- Generator: Adobe Illustrator 16.0.0, SVG Export Plug-In . SVG Version: 6.00 Build 0)  -->
<!DOCTYPE svg [
	<!ENTITY ns_extend "http://ns.adobe.com/Extensibility/1.0/">
	<!ENTITY ns_ai "http://ns.adobe.com/AdobeIllustrator/10.0/">
	<!ENTITY ns_graphs "http://ns.adobe.com/Graphs/1.0/">
	<!ENTITY ns_vars "http://ns.adobe.com/Variables/1.0/">
	<!ENTITY ns_imrep "http://ns.adobe.com/ImageReplacement/1.0/">
	<!ENTITY ns_sfw "http://ns.adobe.com/SaveForWeb/1.0/">
	<!ENTITY ns_custom "http://ns.adobe.com/GenericCustomNamespace/1.0/">
	<!ENTITY ns_adobe_xpath "http://ns.adobe.com/XPath/1.0/">
]>
<svg version="1.2" baseProfile="tiny" id="demi_with_line_alt" xmlns:x="&ns_extend;" xmlns:i="&ns_ai;" xmlns:graph="&ns_graphs;"
	 xmlns="http://www.w3.org/2000/svg" xmlns:xlink="http://www.w3.org/1999/xlink" x="0px" y="0px" width="2048.2890625px"
	 height="181.4511719px" viewBox="0 0 2048.2890625 181.4511719" overflow="visible" xml:space="preserve">
<metadata>
	<sfw  xmlns="&ns_sfw;">
		<slices></slices>
		<sliceSourceBounds  width="2041.7529297" height="172.8242188" bottomLeftOrigin="true" x="-614.1738281" y="90.3134766">
			</sliceSourceBounds>
		<optimizationSettings>
			<targetSettings  targetSettingsID="0" fileFormat="PNG24Format">
				<PNG24Format  transparency="true" interlaced="false" noMatteColor="false" matteColor="#FFFFFF" filtered="false">
					</PNG24Format>
			</targetSettings>
		</optimizationSettings>
	</sfw>
</metadata>
<linearGradient id="SVGID_1_" gradientUnits="userSpaceOnUse" x1="1024.1455078" y1="23.6884766" x2="1024.1455078" y2="157.7626953">
	<stop  offset="0" style="stop-color:#6A6E82"/>
	<stop  offset="0.297719" style="stop-color:#626176"/>
	<stop  offset="0.8474084" style="stop-color:#4D3F58"/>
	<stop  offset="1" style="stop-color:#46344E"/>
</linearGradient>
<polygon fill="url(#SVGID_1_)" stroke="#7C9ECE" stroke-width="0.5" stroke-miterlimit="10" points="1940.3291016,157.7626953 
	3.7792969,157.7626953 107.9604492,23.6884766 2044.5107422,23.6884766 "/>
<linearGradient id="SVGID_2_" gradientUnits="userSpaceOnUse" x1="1024.7216797" y1="4.3134766" x2="1024.7216797" y2="177.1376953">
	<stop  offset="0" style="stop-color:#212121"/>
	<stop  offset="0.3655171" style="stop-color:#2B2B2B"/>
	<stop  offset="0.87" style="stop-color:#404040"/>
</linearGradient>
<path fill="#FFF8FC" stroke="url(#SVGID_2_)" stroke-width="3" stroke-miterlimit="10" d="M187.4619141,8.9091797h51.9609375
	c20.3457031,0,49.9755859,1.9902344,69.4355469,28.3046875c11.9384766,15.0371094,16.8046875,33.1699219,16.8046875,53.2929688
	c0,46.2128906-24.3232422,82.0351563-83.8066406,82.0351563h-54.3945313V8.9091797z M220.4082031,143.5771484h23.21875
	c35.3798828,0,49.0888672-23.21875,49.0888672-52.6269531c0-12.828125-3.3173828-26.5371094-11.0566406-36.7089844
	c-6.8564453-8.8476563-17.9091797-16.3613281-37.8125-16.3613281h-23.4384766V143.5771484z M333.9560547,51.1455078h27.1982422
	c0,5.3046875,0,10.390625-0.21875,16.1425781c5.3046875-9.5078125,16.1416016-20.1230469,37.8125-19.9023438
	c39.5800781,0.2226563,47.0986328,30.515625,47.0986328,51.9628906v73.1933594h-28.9697266v-65.8925781
	c0-18.1328125-5.9667969-32.0664063-26.3134766-32.0664063c-20.5625,0.2246094-27.6376953,13.9335938-27.6376953,30.9570313
	v67.0019531h-28.9697266V51.1455078z M515.3916016,95.1494141v28.5234375h-61.2519531V95.1494141H515.3916016z
	 M523.6845703,8.9091797h86.9013672v28.9707031h-53.9550781v39.1367188h52.6269531v28.9667969h-52.6269531v66.5585938h-32.9462891
	V8.9091797z M700.3662109,114.2255859l-48.8671875-0.0292969l48.8671875-62.8847656V114.2255859z M700.3662109,172.5419922
	h32.9453125V8.9091797h-32.9453125L573.2167969,172.5419922h32.9472656l24.9140625-32.0605469h69.2880859V172.5419922z
	 M741.6044922,172.5419922V8.9091797h44.4458008l42.015625,117.4199219L869.4145508,8.9091797h44.6694336v163.6328125h-30.5170898
	l0.8847656-131.125l-45.7695313,131.125h-21.6738281l-45.9956055-131.125l0.8857422,131.125H741.6044922z M922.3779297,8.9091797
	h32.9472656v163.6328125h-32.9472656V8.9091797z M998.9990234,37.8798828h-35.3808594V8.9091797h103.4863281v28.9707031h-35.1601563
	v134.6621094h-32.9453125V37.8798828z M1496.5283203,117.7021484
	c-9.9511719,33.8320313-41.7929688,57.9355469-80.0488281,57.9355469c-49.9746094,0-85.7929688-39.5800781-85.7929688-85.1308594
	c0-43.5644531,33.8320313-84.6933594,85.5722656-84.6933594c47.0996094,0.2246094,73.8554688,34.9375,80.2695313,58.8222656
	h-34.71875c-5.0839844-11.28125-19.6796875-29.6328125-45.7734375-29.8554688
	c-31.8378906,0-52.4042969,26.7558594-52.4042969,55.7265625c0,29.8515625,21.4492188,56.1640625,52.6269531,56.1640625
	c29.1894531,0,42.4570313-22.9980469,45.5507813-28.96875H1496.5283203z M1504.8212891,8.9091797h32.9492188v75.8457031
	l54.1738281-75.8457031h34.7167969l-59.2636719,81.5976563l65.2324219,82.0351563h-40.2441406l-54.6152344-73.4121094v73.4121094
	h-32.9492188V8.9091797z M1640.9228516,8.9091797h91.7636719v28.9707031h-58.8183594v37.1464844h57.7148438v28.9667969h-57.7148438
	v39.5839844h58.8183594v28.9648438h-91.7636719V8.9091797z M1740.9794922,8.9091797h49.5332031
	c25.4296875,0,40.0253906,3.9804688,48.8671875,10.3945313c13.4902344,9.7285156,20.7871094,26.3144531,20.7871094,44.4453125
	c0,11.9394531-3.3144531,22.5546875-8.84375,30.515625c-7.0761719,10.3925781-16.3671875,15.0351563-26.9804688,17.6894531
	l36.484375,60.5878906h-34.4921875l-44.0058594-76.0683594h6.4140625c10.8339844,0,22.5527344-0.6621094,29.4101563-5.9667969
	c6.4140625-5.3085938,10.3945313-13.9335938,10.3945313-23.8847656c0-9.9492188-4.8671875-19.0136719-12.1621094-23.65625
	c-5.9707031-3.7617188-13.9335938-5.0859375-23.21875-5.0859375h-19.2382813v134.6621094h-32.9492188V8.9091797z
	 M1289.4462891,114.2255859l-48.8652344-0.0292969l48.8652344-62.8847656V114.2255859z M1195.2470703,172.5419922
	l24.9121094-32.0605469h69.2871094v32.0605469h32.9472656V8.9091797h-32.9472656l-108.5839844,139.7460938l-22.1015625-36.7011719
	c10.6152344-2.6542969,19.9042969-7.296875,26.9804688-17.6894531c5.5292969-7.9609375,8.84375-18.5761719,8.84375-30.515625
	c0-18.1308594-7.296875-34.7167969-20.7871094-44.4453125c-8.8457031-6.4140625-23.4375-10.3945313-48.8671875-10.3945313
	h-49.5332031v163.6328125h32.9492188V37.8798828h19.2382813c9.2871094,0,17.2480469,1.3242188,23.2148438,5.0859375
	c7.3007813,4.6425781,12.1660156,13.7070313,12.1660156,23.65625c0,9.9511719-3.9804688,18.5761719-10.3945313,23.8847656
	c-6.8574219,5.3046875-18.5761719,5.9667969-29.4101563,5.9667969h-6.4121094l44.0019531,76.0683594H1195.2470703z"/>
</svg>
