<?xml version="1.0" encoding="UTF-8" standalone="no"?>
<!-- Generator: Adobe Illustrator 16.0.0, SVG Export Plug-In . SVG Version: 6.00 Build 0)  -->

<svg
   version="1.1"
   x="0px"
   y="0px"
   width="2500"
   height="1000"
   viewBox="0 0 2500.0002 999.99995"
   enable-background="new 0 0 2059.442 195.451"
   xml:space="preserve"
   id="svg87"
   sodipodi:docname="dn logo fonts.svg"
   inkscape:version="1.2.2 (732a01da63, 2022-12-09)"
   xmlns:inkscape="http://www.inkscape.org/namespaces/inkscape"
   xmlns:sodipodi="http://sodipodi.sourceforge.net/DTD/sodipodi-0.dtd"
   xmlns="http://www.w3.org/2000/svg"
   xmlns:svg="http://www.w3.org/2000/svg"><defs
   id="defs91" /><sodipodi:namedview
   id="namedview89"
   pagecolor="#808080"
   bordercolor="#000000"
   borderopacity="0.25"
   inkscape:showpageshadow="2"
   inkscape:pageopacity="0"
   inkscape:pagecheckerboard="true"
   inkscape:deskcolor="#d1d1d1"
   showgrid="false"
   inkscape:zoom="0.28187248"
   inkscape:cx="1333.9365"
   inkscape:cy="819.51951"
   inkscape:window-width="1920"
   inkscape:window-height="1057"
   inkscape:window-x="-8"
   inkscape:window-y="-8"
   inkscape:window-maximized="1"
   inkscape:current-layer="svg87" />
<g
   id="book_oblique"
   transform="translate(348.05722,270.8978)">
	<g
   id="g4">
		<path
   fill="#d6bd54"
   d="m 30.293,-206.088 h 48.87 c 23.217,0 47.099,5.085 59.926,24.546 10.391,14.595 13.267,33.832 9.066,57.051 -9.29,49.308 -43.341,82.036 -98.401,82.036 H 0 Z m -9.066,147.49 h 32.508 c 42.013,0 68.547,-25.871 75.846,-65.232 3.537,-19.017 1.547,-35.822 -7.076,-47.76 -8.182,-11.057 -22.113,-18.355 -44.447,-18.355 H 45.55 Z m 158.551,-102.821 h 15.479 c -1.327,6.633 -2.433,13.266 -4.2,21.228 9.729,-15.479 27.639,-24.989 48.646,-24.546 36.928,0.442 45.328,25.651 40.023,54.617 l -12.604,67.665 H 250.98 l 11.942,-64.347 c 4.643,-25.65 -3.538,-43.121 -30.295,-42.679 -24.546,0.223 -41.57,15.037 -46.217,39.804 l -12.38,67.222 h -16.365 z m 176.017,48.865 -3.095,16.143 h -59.922 l 3.096,-16.143 z m 33.613,-93.534 h 83.145 l -2.876,16.143 h -65.008 l -10.837,57.493 h 64.569 l -2.876,16.361 h -64.569 l -13.709,73.636 h -18.133 z m 67.006,163.633 h -19.677 l 98.621,-163.633 h 17.69 l 37.37,163.633 h -19.904 l -10.391,-45.994 h -76.288 z m 83.364,-143.067 -47.762,82.035 h 65.232 z m 68.776,143.067 30.294,-163.633 H 664.5 l 35.16,137.318 85.794,-137.318 h 25.65 L 780.81,-42.455 h -17.247 l 27.42,-145.501 -90.441,145.501 h -11.719 l -36.705,-145.501 -26.535,145.501 z m 235.28,-163.633 h 18.133 l -30.294,163.633 h -18.132 z m 73.638,16.143 h -40.247 l 2.875,-16.143 h 99.063 l -2.875,16.143 h -40.463 l -27.419,147.49 h -18.354 z m 78.056,-16.143 h 42.68 c 25.646,0 37.146,3.095 44.445,8.403 11.721,7.962 17.689,25.429 14.152,44.004 -1.771,11.057 -7.076,22.775 -15.699,32.062 -12.162,13.27 -24.328,16.364 -39.805,17.912 l 29.41,61.252 h -19.9 l -32.951,-71.422 h 5.311 c 11.498,0 27.418,-0.225 37.813,-8.405 10.172,-8.403 15.699,-18.352 17.908,-30.07 2.215,-12.162 -1.324,-24.989 -10.17,-31.623 -7.297,-5.308 -17.248,-5.97 -32.063,-5.97 h -25.65 l -27.419,147.49 h -18.357 z m 106.144,163.633 h -19.678 l 98.621,-163.633 h 17.689 l 37.371,163.633 h -19.904 l -10.391,-45.994 h -76.287 z m 83.364,-143.067 -47.762,82.035 h 65.232 z m 221.129,99.063 c -15.256,25.209 -47.762,46.878 -83.803,46.878 -48.428,0 -78.502,-37.369 -69.654,-84.69 8.623,-46.657 51.74,-84.689 100.83,-84.689 40.465,0 60.813,26.977 66.561,47.761 h -19.682 c -3.76,-9.729 -18.352,-31.618 -49.975,-31.618 -38.256,0 -72.525,30.291 -79.604,68.327 -7.299,38.694 16.143,68.769 54.176,68.769 34.275,0 56.385,-24.546 61.471,-30.736 h 19.68 z m 49.761,-119.629 h 18.133 l -14.594,79.163 81.154,-79.163 h 19.898 l -83.584,81.597 60.146,82.036 h -22.775 l -56.164,-77.616 -14.377,77.616 h -18.131 z m 127.588,0 h 90.664 l -2.877,16.143 h -72.531 l -10.609,56.83 h 72.084 l -3.096,16.143 h -72.088 l -10.613,58.375 h 72.529 l -3.094,16.143 h -90.664 z m 118.08,0 h 42.68 c 25.648,0 37.148,3.095 44.447,8.403 11.719,7.962 17.689,25.429 14.152,44.004 -1.771,11.057 -7.076,22.775 -15.701,32.062 -12.164,13.27 -24.326,16.364 -39.803,17.912 l 29.408,61.252 h -19.898 l -32.951,-71.422 h 5.309 c 11.5,0 27.418,-0.225 37.813,-8.405 10.172,-8.403 15.701,-18.352 17.91,-30.07 2.213,-12.162 -1.324,-24.989 -10.172,-31.623 -7.295,-5.308 -17.248,-5.97 -32.061,-5.97 h -25.65 l -27.42,147.49 h -18.355 z"
   id="path2" />
	</g>
</g>
<g
   id="bold"
   transform="translate(383.67,1009.7708)">
	<path
   fill="none"
   stroke="#000000"
   stroke-miterlimit="10"
   d="M 1029.51,-282.449"
   id="path7" />
	<path
   d="m 0,-414.107 h 54.174 c 18.355,0 51.082,0 72.311,30.518 11.277,15.477 15.035,32.947 15.035,50.856 0,44.668 -22.111,82.258 -84.247,82.258 H 0 Z m 41.793,126.925 h 17.91 c 31.178,0 40.025,-21.668 40.025,-44.885 0,-9.29 -1.99,-21.009 -7.961,-30.294 -4.867,-7.301 -13.268,-15.037 -31.842,-15.037 H 41.793 Z m 108.131,-86.017 h 34.274 v 13.047 c 4.201,-5.971 11.943,-17.246 33.832,-17.246 41.352,0 45.551,33.607 45.551,50.193 v 76.73 h -36.707 v -67.002 c 0,-13.486 -2.871,-25.427 -19.238,-25.427 -18.127,0 -21.004,13.047 -21.004,25.65 v 66.779 h -36.708 z m 184.199,40.908 v 36.042 h -62.137 v -36.042 z m 8.404,-81.816 h 89.336 v 36.709 h -47.541 v 27.859 h 45.773 v 36.708 h -45.773 v 62.355 h -41.795 z m 180.443,163.632 v -23.66 h -62.424 l -17.623,23.66 H 401.13 l 121.84,-163.632 h 41.793 v 163.632 z m 0,-56.826 v -50.673 l -37.73,50.673 z m 50.197,56.826 v -163.632 h 55.946 l 30.737,105.478 29.852,-105.478 h 56.167 v 163.632 h -38.477 l 1.328,-122.5 -35.379,122.5 H 645.7 l -35.381,-122.5 1.324,122.5 z m 181.106,-163.632 h 41.793 v 163.632 h -41.793 z m 82.483,36.709 H 804.47 v -36.709 h 106.141 v 36.709 H 878.55 v 126.923 h -41.795 v -126.923 z m 290.786,-36.709 h 41.795 v 163.632 h -41.795 v -23.66 h -62.422 l -17.623,23.66 h -43.123 l -42.674,-78.94 h 6.852 c 10.615,0 19.68,-0.886 25.209,-4.424 5.086,-3.313 9.289,-11.056 9.289,-20.122 0,-8.624 -4.203,-15.477 -9.732,-19.015 -4.643,-2.876 -11.275,-4.423 -17.023,-4.423 h -15.48 v 126.923 H 919.02 v -163.632 h 53.514 c 25.65,0 41.568,4.643 50.635,11.719 13.709,10.614 19.904,26.757 19.904,44.67 0,12.604 -3.539,22.333 -8.182,29.628 -5.527,8.623 -13.49,14.15 -21.229,17.469 l 15.848,28.173 98.032,-131.658 m 0,106.806 v -50.673 l -37.729,50.673 z m 219.136,-4.424 c -9.506,38.695 -43.117,64.346 -82.697,64.346 -51.303,0 -86.24,-40.908 -86.24,-85.131 0,-41.792 32.285,-84.691 85.797,-84.691 51.299,0 78.721,39.58 83.141,65.231 H 1302.9 c -4.645,-12.162 -17.027,-28.523 -39.58,-28.523 -28.086,0 -43.785,24.542 -43.785,47.761 0,24.766 16.805,48.647 44.004,48.647 26.094,0 36.707,-21.891 39.361,-27.639 h 43.778 z m 10.53,-102.382 h 41.795 v 73.636 l 46.654,-73.636 h 43.785 l -53.955,81.374 59.484,82.258 h -50.861 l -45.107,-70.76 v 70.76 h -41.795 z m 145.919,0 h 92.652 v 36.709 h -50.859 v 25.428 h 49.311 v 36.707 h -49.311 v 28.082 h 50.859 v 36.707 h -92.652 z m 101.057,0 h 53.512 c 25.652,0 41.572,4.643 50.639,11.719 13.709,10.614 19.902,26.757 19.902,44.67 0,12.604 -3.539,22.333 -8.182,29.628 -5.527,8.623 -13.488,14.15 -21.229,17.469 l 33.834,60.146 h -43.121 l -42.676,-78.94 h 6.852 c 10.613,0 19.682,-0.886 25.209,-4.424 5.086,-3.313 9.289,-11.056 9.289,-20.122 0,-8.624 -4.203,-15.477 -9.732,-19.015 -4.643,-2.876 -11.275,-4.423 -17.023,-4.423 h -15.48 v 126.923 h -41.793 v -163.631 z"
   id="path9" />
	<path
   fill="none"
   stroke="#000000"
   stroke-miterlimit="10"
   d="M 1029.51,-282.449"
   id="path11" />
</g>
<g
   id="demi"
   transform="translate(413.321,877.2908)">
	<path
   fill="#a71f24"
   stroke="#a71f23"
   stroke-miterlimit="10"
   d="M 973.284,-473.044"
   id="path14" />
	<path
   fill="#a71f24"
   d="M -0.001,-636.677 H 51.96 c 20.346,0 49.976,1.99 69.436,28.304 11.938,15.038 16.805,33.17 16.805,53.293 0,46.214 -24.323,82.036 -83.807,82.036 H -0.001 Z m 32.946,134.667 h 23.219 c 35.38,0 49.089,-23.219 49.089,-52.627 0,-12.827 -3.317,-26.537 -11.057,-36.709 -6.856,-8.847 -17.909,-16.361 -37.813,-16.361 H 32.945 Z m 113.548,-92.431 h 27.198 c 0,5.305 0,10.391 -0.219,16.143 5.305,-9.509 16.142,-20.123 37.813,-19.903 39.58,0.223 47.099,30.517 47.099,51.964 v 73.193 h -28.97 v -65.894 c 0,-18.132 -5.967,-32.065 -26.313,-32.065 -20.563,0.224 -27.638,13.934 -27.638,30.957 v 67.002 h -28.97 z m 181.435,44.004 v 28.523 h -61.252 v -28.523 z m 8.293,-86.24 h 86.901 v 28.97 h -53.955 v 39.138 h 52.627 v 28.966 h -52.627 v 66.56 h -32.946 z m 176.682,105.315 -48.867,-0.028 48.867,-62.885 z m 0,58.318 h 32.945 v -163.633 h -32.945 l -127.15,163.633 H 418.7 l 24.914,-32.062 h 69.288 v 32.062 z m 41.238,0 v -163.633 h 44.446 l 42.012,117.419 41.348,-117.419 h 44.67 v 163.633 H 696.1 l 0.885,-131.125 -45.771,131.125 h -21.671 l -45.994,-131.125 0.886,131.125 z M 734.91,-636.677 h 32.947 v 163.633 H 734.91 Z m 76.621,28.969 H 776.15 v -28.97 h 103.487 v 28.97 h -35.16 v 134.663 h -32.946 z m 497.53,79.823 c -9.951,33.832 -41.793,57.936 -80.049,57.936 -49.975,0 -85.793,-39.58 -85.793,-85.131 0,-43.564 33.832,-84.692 85.572,-84.692 47.1,0.224 73.855,34.938 80.27,58.821 h -34.719 c -5.084,-11.28 -19.68,-29.632 -45.773,-29.854 -31.838,0 -52.404,26.756 -52.404,55.726 0,29.852 21.449,56.165 52.627,56.165 29.189,0 42.457,-22.998 45.551,-28.97 h 34.718 z m 8.293,-108.792 h 32.949 v 75.846 l 54.174,-75.846 h 34.717 l -59.264,81.597 65.232,82.036 h -40.244 l -54.615,-73.412 v 73.412 h -32.949 z m 136.102,0 h 91.764 v 28.97 h -58.818 v 37.147 h 57.715 v 28.967 h -57.715 v 39.583 h 58.818 v 28.966 h -91.764 z m 100.056,0 h 49.533 c 25.43,0 40.025,3.98 48.867,10.395 13.49,9.729 20.787,26.314 20.787,44.445 0,11.939 -3.314,22.554 -8.844,30.516 -7.076,10.393 -16.367,15.035 -26.98,17.689 l 36.484,60.588 h -34.492 l -44.006,-76.069 h 6.414 c 10.834,0 22.553,-0.661 29.41,-5.967 6.414,-5.309 10.395,-13.933 10.395,-23.884 0,-9.949 -4.867,-19.015 -12.162,-23.657 -5.971,-3.761 -13.934,-5.086 -23.219,-5.086 h -19.238 v 134.663 h -32.949 z m -451.533,105.315 -48.865,-0.028 48.865,-62.885 z m -94.199,58.318 24.912,-32.062 h 69.287 v 32.062 h 32.947 v -163.633 h -32.947 l -108.585,139.744 -22.101,-36.7 c 10.615,-2.654 19.904,-7.297 26.98,-17.689 5.529,-7.962 8.844,-18.576 8.844,-30.516 0,-18.131 -7.297,-34.717 -20.787,-44.445 -8.846,-6.414 -23.438,-10.395 -48.867,-10.395 H 887.93 v 163.633 h 32.948 v -134.663 h 19.24 c 9.287,0 17.248,1.325 23.215,5.086 7.301,4.643 12.166,13.708 12.166,23.657 0,9.951 -3.98,18.575 -10.395,23.884 -6.857,5.306 -18.576,5.967 -29.41,5.967 h -6.412 l 44.002,76.069 h 34.496 z"
   id="path16" />
	<path
   fill="#a71f24"
   stroke="#a71f23"
   stroke-miterlimit="10"
   d="M 973.284,-473.044"
   id="path18" />
</g>
<g
   id="demi_with_line_3"
   transform="translate(-16.7645,-341.0472)">
	<polygon
   fill="none"
   stroke="#5b556c"
   stroke-width="8"
   stroke-miterlimit="10"
   points="246.399,1261.59 350.58,1127.516 2287.13,1127.516 2182.949,1261.59 "
   id="polygon21" />
	<path
   fill="#fff8fc"
   d="m 430.083,1112.736 h 51.961 c 20.346,0 49.976,1.99 69.436,28.305 11.938,15.037 16.805,33.17 16.805,53.293 0,46.213 -24.323,82.035 -83.807,82.035 h -54.395 z m 32.946,134.668 h 23.219 c 35.38,0 49.089,-23.219 49.089,-52.627 0,-12.828 -3.317,-26.537 -11.057,-36.709 -6.856,-8.848 -17.909,-16.361 -37.813,-16.361 h -23.438 z m 113.548,-92.431 h 27.198 c 0,5.305 0,10.391 -0.219,16.143 5.305,-9.508 16.142,-20.123 37.813,-19.902 39.58,0.223 47.099,30.516 47.099,51.963 v 73.193 h -28.97 v -65.893 c 0,-18.133 -5.967,-32.066 -26.313,-32.066 -20.563,0.225 -27.638,13.934 -27.638,30.957 v 67.002 h -28.97 z m 181.435,44.004 V 1227.5 H 696.76 v -28.523 z m 8.293,-86.241 h 86.901 v 28.971 h -53.955 v 39.137 h 52.627 v 28.967 h -52.627 v 66.559 h -32.946 z m 176.682,105.317 -48.867,-0.029 48.867,-62.885 z m 0,58.316 h 32.945 v -163.633 h -32.945 l -127.149,163.633 h 32.947 l 24.914,-32.061 h 69.288 z m 41.238,0 v -163.633 h 44.445 l 42.016,117.42 41.35,-117.42 h 44.669 v 163.633 h -30.517 l 0.885,-131.125 -45.77,131.125 h -21.674 l -45.996,-131.125 0.886,131.125 z m 180.774,-163.633 h 32.947 v 163.633 h -32.947 z m 76.621,28.971 h -35.381 v -28.971 h 103.486 v 28.971 h -35.16 v 134.662 h -32.945 z m 497.529,79.822 c -9.951,33.832 -41.793,57.936 -80.049,57.936 -49.975,0 -85.793,-39.58 -85.793,-85.131 0,-43.564 33.832,-84.693 85.572,-84.693 47.1,0.225 73.855,34.938 80.27,58.822 h -34.719 c -5.084,-11.281 -19.68,-29.633 -45.773,-29.855 -31.838,0 -52.404,26.756 -52.404,55.727 0,29.852 21.449,56.164 52.627,56.164 29.189,0 42.457,-22.998 45.551,-28.969 h 34.718 z m 8.293,-108.793 h 32.949 v 75.846 l 54.174,-75.846 h 34.717 l -59.264,81.598 65.232,82.035 h -40.244 l -54.615,-73.412 v 73.412 h -32.949 z m 136.101,0 h 91.764 v 28.971 h -58.818 v 37.146 h 57.715 v 28.967 h -57.715 v 39.584 h 58.818 v 28.965 h -91.764 z m 100.057,0 h 49.533 c 25.43,0 40.025,3.98 48.867,10.395 13.49,9.729 20.787,26.314 20.787,44.445 0,11.939 -3.314,22.555 -8.844,30.516 -7.076,10.393 -16.367,15.035 -26.98,17.689 l 36.484,60.588 h -34.492 l -44.006,-76.068 h 6.414 c 10.834,0 22.553,-0.662 29.41,-5.967 6.414,-5.309 10.395,-13.934 10.395,-23.885 0,-9.949 -4.867,-19.014 -12.162,-23.656 -5.971,-3.762 -13.934,-5.086 -23.219,-5.086 h -19.238 v 134.662 H 1983.6 Z m -451.533,105.317 -48.865,-0.029 48.865,-62.885 z m -94.199,58.316 24.912,-32.061 h 69.287 v 32.061 h 32.947 v -163.633 h -32.947 l -108.584,139.746 -22.102,-36.701 c 10.615,-2.654 19.904,-7.297 26.98,-17.689 5.529,-7.961 8.844,-18.576 8.844,-30.516 0,-18.131 -7.297,-34.717 -20.787,-44.445 -8.846,-6.414 -23.438,-10.395 -48.867,-10.395 h -49.533 v 163.633 h 32.949 v -134.662 h 19.238 c 9.287,0 17.248,1.324 23.215,5.086 7.301,4.643 12.166,13.707 12.166,23.656 0,9.951 -3.98,18.576 -10.395,23.885 -6.857,5.305 -18.576,5.967 -29.41,5.967 h -6.412 l 44.002,76.068 z"
   id="path23" />
</g>
<g
   id="demi_with_line"
   display="none">
	<polygon
   display="inline"
   fill="#efe9d3"
   stroke="#d6bd54"
   stroke-width="3"
   stroke-miterlimit="10"
   points="1945.904,164.763 9.355,164.763 113.537,30.688 2050.085,30.688 "
   id="polygon26" />
	<path
   display="inline"
   fill="#a71f24"
   d="m 193.037,15.91 h 51.961 c 20.346,0 49.976,1.99 69.436,28.304 11.938,15.038 16.805,33.17 16.805,53.293 0,46.214 -24.323,82.036 -83.807,82.036 h -54.395 z m 32.946,134.667 h 23.219 c 35.38,0 49.089,-23.219 49.089,-52.627 0,-12.827 -3.317,-26.537 -11.057,-36.709 C 280.378,52.394 269.325,44.88 249.421,44.88 H 225.983 Z M 339.531,58.146 h 27.198 c 0,5.305 0,10.391 -0.219,16.143 5.305,-9.509 16.142,-20.123 37.813,-19.903 39.58,0.223 47.099,30.517 47.099,51.964 v 73.193 h -28.97 v -65.894 c 0,-18.132 -5.967,-32.065 -26.313,-32.065 -20.563,0.224 -27.638,13.934 -27.638,30.957 v 67.002 h -28.97 V 58.146 Z m 181.436,44.004 v 28.523 H 459.715 V 102.15 Z m 8.293,-86.24 h 86.901 v 28.97 h -53.955 v 39.138 h 52.627 v 28.966 h -52.627 v 66.56 H 529.26 Z m 176.681,105.316 -48.867,-0.028 48.867,-62.885 z m 0,58.317 h 32.945 V 15.91 H 705.941 L 578.792,179.543 h 32.947 l 24.914,-32.062 h 69.288 z m 41.239,0 V 15.91 h 44.446 L 833.642,133.329 874.99,15.91 h 44.67 v 163.633 h -30.518 l 0.885,-131.125 -45.77,131.125 H 822.583 L 776.588,48.418 777.474,179.543 Z M 927.954,15.91 h 32.947 v 163.633 h -32.947 z m 76.621,28.97 H 969.194 V 15.91 h 103.486 v 28.97 h -35.16 v 134.663 h -32.945 z m 497.529,79.822 c -9.951,33.832 -41.793,57.936 -80.049,57.936 -49.975,0 -85.793,-39.58 -85.793,-85.131 0,-43.564 33.832,-84.692 85.572,-84.692 47.1,0.224 73.855,34.938 80.27,58.821 h -34.719 c -5.084,-11.28 -19.68,-29.632 -45.773,-29.854 -31.838,0 -52.404,26.756 -52.404,55.726 0,29.852 21.449,56.165 52.627,56.165 29.189,0 42.457,-22.998 45.551,-28.97 h 34.718 z m 8.293,-108.792 h 32.949 V 91.756 L 1597.52,15.91 h 34.717 l -59.264,81.597 65.232,82.036 h -40.244 l -54.615,-73.412 v 73.412 h -32.949 z m 136.102,0 h 91.764 v 28.97 h -58.818 v 37.147 h 57.715 v 28.967 h -57.715 v 39.583 h 58.818 v 28.966 h -91.764 z m 100.056,0 h 49.533 c 25.43,0 40.025,3.98 48.867,10.395 13.49,9.729 20.787,26.314 20.787,44.445 0,11.939 -3.314,22.554 -8.844,30.516 -7.076,10.393 -16.367,15.035 -26.98,17.689 l 36.484,60.588 h -34.492 l -44.006,-76.069 h 6.414 c 10.834,0 22.553,-0.661 29.41,-5.967 6.414,-5.309 10.395,-13.933 10.395,-23.884 0,-9.949 -4.867,-19.015 -12.162,-23.657 -5.971,-3.761 -13.934,-5.086 -23.219,-5.086 h -19.238 v 134.663 h -32.949 z m -451.533,105.316 -48.865,-0.028 48.865,-62.885 z m -94.199,58.317 24.912,-32.062 h 69.287 v 32.062 h 32.947 V 15.91 h -32.947 l -108.584,139.745 -22.102,-36.7 c 10.615,-2.654 19.904,-7.297 26.98,-17.689 5.529,-7.962 8.844,-18.576 8.844,-30.516 0,-18.131 -7.297,-34.717 -20.787,-44.445 -8.846,-6.414 -23.438,-10.395 -48.867,-10.395 h -49.533 v 163.633 h 32.949 V 44.88 h 19.238 c 9.287,0 17.248,1.325 23.215,5.086 7.301,4.643 12.166,13.708 12.166,23.657 0,9.951 -3.98,18.575 -10.395,23.884 -6.857,5.306 -18.576,5.967 -29.41,5.967 h -6.412 l 44.002,76.069 z"
   id="path28" />
</g>
<g
   id="demi_with_line_alt"
   transform="translate(220.2795,402.2298)">
	<linearGradient
   id="SVGID_1_"
   gradientUnits="userSpaceOnUse"
   x1="1029.7212"
   y1="30.688499"
   x2="1029.7212"
   y2="164.7627">
		<stop
   offset="0"
   style="stop-color:#6A6E82"
   id="stop31" />
		<stop
   offset="0.2977"
   style="stop-color:#626176"
   id="stop33" />
		<stop
   offset="0.8474"
   style="stop-color:#4D3F58"
   id="stop35" />
		<stop
   offset="1"
   style="stop-color:#46344E"
   id="stop37" />
	</linearGradient>
	<polygon
   fill="url(#SVGID_1_)"
   stroke="#7c9ece"
   stroke-width="0.5"
   stroke-miterlimit="10"
   points="113.536,30.688 2050.086,30.688 1945.905,164.763 9.355,164.763 "
   id="polygon40"
   style="fill:url(#SVGID_1_)" />
	<linearGradient
   id="SVGID_2_"
   gradientUnits="userSpaceOnUse"
   x1="1030.0874"
   y1="11.3135"
   x2="1030.0874"
   y2="184.1377">
		<stop
   offset="0"
   style="stop-color:#212121"
   id="stop42" />
		<stop
   offset="0.3655"
   style="stop-color:#2B2B2B"
   id="stop44" />
		<stop
   offset="0.87"
   style="stop-color:#404040"
   id="stop46" />
	</linearGradient>
	<path
   fill="#fff8fc"
   stroke="url(#SVGID_2_)"
   stroke-width="3"
   stroke-miterlimit="10"
   d="m 192.828,15.909 h 51.961 c 20.346,0 49.976,1.99 69.436,28.305 11.938,15.037 16.805,33.17 16.805,53.293 0,46.213 -24.323,82.035 -83.807,82.035 h -54.395 z m 32.946,134.668 h 23.219 c 35.38,0 49.089,-23.219 49.089,-52.627 0,-12.828 -3.317,-26.537 -11.057,-36.709 C 280.169,52.393 269.116,44.88 249.212,44.88 H 225.774 Z M 339.322,58.146 h 27.198 c 0,5.305 0,10.391 -0.219,16.143 5.305,-9.508 16.142,-20.123 37.813,-19.902 39.58,0.223 47.099,30.516 47.099,51.963 v 73.193 h -28.97 V 113.65 c 0,-18.133 -5.967,-32.066 -26.313,-32.066 -20.563,0.225 -27.638,13.934 -27.638,30.957 v 67.002 h -28.97 z m 181.435,44.003 v 28.523 h -61.252 v -28.523 z m 8.293,-86.24 h 86.901 V 44.88 h -53.955 v 39.137 h 52.627 v 28.967 h -52.627 v 66.559 H 529.05 Z m 176.682,105.317 -48.867,-0.029 48.867,-62.885 z m 0,58.316 h 32.945 V 15.909 H 705.732 L 578.583,179.542 h 32.947 l 24.914,-32.061 h 69.288 z m 41.238,0 V 15.909 h 44.446 l 42.016,117.42 41.349,-117.42 h 44.669 v 163.633 h -30.517 l 0.885,-131.125 -45.77,131.125 H 822.374 L 776.378,48.417 777.264,179.542 Z M 927.744,15.909 h 32.947 v 163.633 h -32.947 z m 76.621,28.971 H 968.984 V 15.909 H 1072.47 V 44.88 h -35.16 v 134.662 h -32.945 z m 497.529,79.822 c -9.951,33.832 -41.793,57.936 -80.049,57.936 -49.975,0 -85.793,-39.58 -85.793,-85.131 0,-43.564 33.832,-84.693 85.572,-84.693 47.1,0.225 73.855,34.938 80.27,58.822 h -34.719 c -5.084,-11.281 -19.68,-29.633 -45.773,-29.855 -31.838,0 -52.404,26.756 -52.404,55.727 0,29.852 21.449,56.164 52.627,56.164 29.189,0 42.457,-22.998 45.551,-28.969 h 34.718 z m 8.293,-108.793 h 32.949 v 75.846 l 54.174,-75.846 h 34.717 l -59.264,81.598 65.232,82.035 h -40.244 l -54.615,-73.412 v 73.412 h -32.949 z m 136.102,0 h 91.764 V 44.88 h -58.818 v 37.146 h 57.715 v 28.967 h -57.715 v 39.584 h 58.818 v 28.965 h -91.764 z m 100.056,0 h 49.533 c 25.43,0 40.025,3.98 48.867,10.395 13.49,9.729 20.787,26.314 20.787,44.445 0,11.939 -3.314,22.555 -8.844,30.516 -7.076,10.393 -16.367,15.035 -26.98,17.689 l 36.484,60.588 H 1831.7 l -44.006,-76.068 h 6.414 c 10.834,0 22.553,-0.662 29.41,-5.967 6.414,-5.309 10.395,-13.934 10.395,-23.885 0,-9.949 -4.867,-19.014 -12.162,-23.656 -5.971,-3.762 -13.934,-5.086 -23.219,-5.086 h -19.238 v 134.662 h -32.949 z m -451.533,105.317 -48.865,-0.029 48.865,-62.885 z m -94.199,58.316 24.912,-32.061 h 69.287 v 32.061 h 32.947 V 15.909 h -32.947 l -108.584,139.746 -22.102,-36.701 c 10.615,-2.654 19.904,-7.297 26.98,-17.689 5.529,-7.961 8.844,-18.576 8.844,-30.516 0,-18.131 -7.297,-34.717 -20.787,-44.445 -8.846,-6.414 -23.438,-10.395 -48.867,-10.395 h -49.533 v 163.633 h 32.949 V 44.88 h 19.238 c 9.287,0 17.248,1.324 23.215,5.086 7.301,4.643 12.166,13.707 12.166,23.656 0,9.951 -3.98,18.576 -10.395,23.885 -6.857,5.305 -18.576,5.967 -29.41,5.967 h -6.412 l 44.002,76.068 z"
   id="path49"
   style="stroke:url(#SVGID_2_)" />
</g>

</svg>
